<svg width="41" height="40" viewBox="0 0 41 40" fill="none" xmlns="http://www.w3.org/2000/svg">
<path d="M20.7497 36.6673C12.8929 36.6673 8.96456 36.6673 6.52379 34.2265C4.08301 31.7858 4.08301 27.8573 4.08301 20.0007C4.08301 12.1439 4.08301 8.21553 6.52379 5.77477C8.96456 3.33398 12.8929 3.33398 20.7497 3.33398C28.6063 3.33398 32.5348 3.33398 34.9755 5.77477C37.4163 8.21553 37.4163 12.1439 37.4163 20.0007C37.4163 27.8573 37.4163 31.7858 34.9755 34.2265C32.5348 36.6673 28.6063 36.6673 20.7497 36.6673Z" fill="#2BD69A"/>
<path d="M27.4675 14.9501C27.9557 15.4382 27.9557 16.2297 27.4675 16.7178L19.1342 25.0511C18.646 25.5393 17.8547 25.5393 17.3664 25.0511L14.0331 21.7178C13.545 21.2296 13.545 20.4383 14.0331 19.9501C14.5213 19.462 15.3127 19.462 15.8009 19.9501L18.2503 22.3995L25.6998 14.9501C26.188 14.4619 26.9793 14.4619 27.4675 14.9501Z" fill="#262A35"/>
</svg>
