<svg width="41" height="40" viewBox="0 0 41 40" fill="none" xmlns="http://www.w3.org/2000/svg">
<path fill-rule="evenodd" clip-rule="evenodd" d="M19.7257 39.6483L19.7215 39.6452L19.7112 39.637L19.6747 39.6083C19.6433 39.5835 19.5982 39.5478 19.54 39.5013C19.424 39.4085 19.2562 39.2728 19.0442 39.0978C18.6203 38.748 18.0188 38.24 17.2987 37.5998C15.8607 36.3217 13.9385 34.5068 12.0109 32.365C10.0881 30.2285 8.12789 27.7317 6.64079 25.088C5.16237 22.4597 4.08301 19.5655 4.08301 16.6667C4.08301 12.2464 5.83896 8.00717 8.96456 4.88155C12.0902 1.75595 16.3294 0 20.7497 0C25.17 0 29.4092 1.75595 32.5348 4.88155C35.6603 8.00717 37.4163 12.2464 37.4163 16.6667C37.4163 19.5655 36.337 22.4597 34.8585 25.088C33.3715 27.7317 31.4113 30.2285 29.4885 32.365C27.5608 34.5068 25.6387 36.3217 24.2007 37.5998C23.4805 38.24 22.879 38.748 22.4552 39.0978C22.2432 39.2728 22.0753 39.4085 21.9593 39.5013C21.9012 39.5478 21.856 39.5835 21.8247 39.6083L21.7882 39.637L21.7778 39.6452L21.7747 39.6475C21.7747 39.6475 21.7728 39.649 20.7497 38.3333L21.7728 39.649C21.171 40.117 20.3275 40.1165 19.7257 39.6483ZM20.7497 38.3333L19.7257 39.6483C19.7257 39.6483 19.7265 39.649 20.7497 38.3333ZM25.7497 16.6667C25.7497 19.4282 23.5112 21.6667 20.7497 21.6667C17.9882 21.6667 15.7497 19.4282 15.7497 16.6667C15.7497 13.9052 17.9882 11.6667 20.7497 11.6667C23.5112 11.6667 25.7497 13.9052 25.7497 16.6667Z" fill="#FF6E79"/>
</svg>
