<svg width="41" height="40" viewBox="0 0 41 40" fill="none" xmlns="http://www.w3.org/2000/svg">
<g clip-path="url(#clip0_676_2913)">
<path d="M39.321 0H22.1782C22.1782 0.649922 22.1782 6.63836 22.1782 7.4143C22.1782 8.51344 20.9856 9.20023 20.0354 8.65156C18.4819 7.75492 16.4639 8.84805 16.4639 10.7143C16.4639 12.5763 18.4777 13.6762 20.0354 12.777C20.9875 12.2275 22.1782 12.917 22.1782 14.0143V18.5714H24.8122C24.5461 15.6705 26.7992 12.8571 30.0353 12.8571C33.248 12.8571 35.5268 15.6452 35.2583 18.5714C35.8476 18.5714 40.1574 18.5714 40.7496 18.5714V1.42859C40.7496 0.639609 40.11 0 39.321 0Z" fill="#FF6967"/>
<path d="M19.3214 5.49133C19.3214 4.90203 19.3214 0.592188 19.3214 0H2.17859C1.38961 0 0.75 0.639609 0.75 1.42859V18.5715C1.39992 18.5715 7.38836 18.5715 8.1643 18.5715C9.25766 18.5715 9.95312 19.7587 9.40156 20.7142C8.5093 22.26 9.58969 24.2858 11.4643 24.2858C13.3303 24.2858 14.4244 22.2688 13.527 20.7144C12.9775 19.7623 13.667 18.5715 14.7643 18.5715H19.3214V15.9373C16.4167 16.2042 13.6071 13.9465 13.6071 10.7143C13.6071 7.45055 16.4514 5.22711 19.3214 5.49133Z" fill="#FF6967"/>
<path d="M33.3358 21.4291C32.2268 21.4291 31.5558 20.2268 32.0986 19.2864C32.9851 17.7508 31.9204 15.7148 30.0358 15.7148C28.1654 15.7148 27.0779 17.7358 27.9731 19.2864C28.5226 20.2385 27.833 21.4291 26.7358 21.4291H22.1787V24.0623C25.0884 23.7956 27.893 26.0575 27.893 29.2852C27.893 32.5076 25.0934 34.7759 22.1787 34.5083V40.0005H39.3216C40.1106 40.0005 40.7502 39.3609 40.7502 38.572V21.4291C40.1001 21.4291 34.1118 21.4291 33.3358 21.4291Z" fill="#FF6967"/>
<path d="M21.4642 27.2212C20.5104 27.7717 19.3215 27.0812 19.3215 25.9839V21.4277H16.6873C16.9537 24.3298 14.6991 27.142 11.4643 27.142C8.24422 27.142 5.97359 24.3442 6.24133 21.4277C5.65188 21.4277 1.34219 21.4277 0.75 21.4277V38.5706C0.75 39.3595 1.38961 39.9991 2.17859 39.9991H19.3215V32.5839C19.3215 31.4848 20.5141 30.798 21.4642 31.3466C23.0233 32.2465 25.0358 31.1444 25.0358 29.2839C25.0357 27.4218 23.0218 26.3221 21.4642 27.2212Z" fill="#FF6967"/>
</g>
<defs>
<clipPath id="clip0_676_2913">
<rect x="0.75" width="40" height="40" rx="10" fill="white"/>
</clipPath>
</defs>
</svg>
