<svg width="41" height="40" viewBox="0 0 41 40" fill="none" xmlns="http://www.w3.org/2000/svg">
<path d="M39.1175 19.1836V31.8367H37.893V11.1836H32.1787V33.4693H37.893H39.9338C40.3847 33.4693 40.7501 33.1038 40.7501 32.653V19.1836H39.1175Z" fill="#7254FE"/>
<path d="M35.7889 4.5844C35.6622 4.28015 35.3649 4.08203 35.0354 4.08203C34.7058 4.08203 34.4086 4.28015 34.2818 4.5844L32.2803 9.38815H37.7905L35.7889 4.5844Z" fill="#7254FE"/>
<path d="M32.1787 39.184C32.1787 39.6348 32.5442 40.0003 32.995 40.0003H37.0767C37.5275 40.0003 37.893 39.6348 37.893 39.184V35.2656H32.1787V39.184Z" fill="#7254FE"/>
<path d="M10.1375 30.6133H7.68848V33.0623H10.1375V30.6133Z" fill="#7254FE"/>
<path d="M10.1375 21.6328H7.68848V24.0818H10.1375V21.6328Z" fill="#7254FE"/>
<path d="M10.1375 12.6523H7.68848V15.1013H10.1375V12.6523Z" fill="#7254FE"/>
<path d="M23.1989 8.57143H22.3827H21.4031H21.403V0H1.56633C1.11547 0 0.75 0.365469 0.75 0.816326V39.1837C0.75 39.6345 1.11547 40 1.56633 40H29.3214C29.7723 40 30.1378 39.6345 30.1378 39.1837V8.57143H29.3214H23.1989ZM12.9949 11.4286H17.0765V13.0612H12.9949V11.4286ZM12.9949 20.4082H17.0765V22.0408H12.9949V20.4082ZM12.9949 29.3878H17.0765V31.0204H12.9949V29.3878ZM11.7704 33.8776C11.7704 34.3284 11.4049 34.6939 10.9541 34.6939H6.87245C6.42159 34.6939 6.05612 34.3284 6.05612 33.8776V29.7959C6.05612 29.3451 6.42159 28.9796 6.87245 28.9796H10.9541C11.4049 28.9796 11.7704 29.3451 11.7704 29.7959V33.8776ZM11.7704 24.898C11.7704 25.3488 11.4049 25.7143 10.9541 25.7143H6.87245C6.42159 25.7143 6.05612 25.3488 6.05612 24.898V20.8163C6.05612 20.3655 6.42159 20 6.87245 20H10.9541C11.4049 20 11.7704 20.3655 11.7704 20.8163V24.898ZM11.7704 15.9184C11.7704 16.3692 11.4049 16.7347 10.9541 16.7347H6.87245C6.42159 16.7347 6.05612 16.3692 6.05612 15.9184V11.8367C6.05612 11.3859 6.42159 11.0204 6.87245 11.0204H10.9541C11.4049 11.0204 11.7704 11.3859 11.7704 11.8367V15.9184ZM24.0153 34.2857H12.9949V32.6531H24.0153V34.2857ZM24.0153 25.3061H12.9949V23.6735H24.0153V25.3061ZM24.0153 16.3265H12.9949V14.6939H24.0153V16.3265Z" fill="#7254FE"/>
<path d="M23.1992 0.478516V6.7759H29.4967L23.1992 0.478516Z" fill="#7254FE"/>
</svg>
