<svg width="41" height="34" viewBox="0 0 41 34" fill="none" xmlns="http://www.w3.org/2000/svg">
<path d="M31.1786 14.5957H10.3215C5.03531 14.5957 0.75 18.8807 0.75 24.1672C0.75 29.453 5.03531 33.7386 10.3215 33.7386C13.6531 33.7386 16.5865 32.0345 18.3002 29.453H23.1995C24.9136 32.0345 27.8473 33.7386 31.1786 33.7386C36.4651 33.7386 40.75 29.453 40.75 24.1672C40.75 18.8807 36.4651 14.5957 31.1786 14.5957ZM14.5121 25.3109H11.5595V28.2623H8.98789V25.3109H6.03586V22.7384H8.98789V19.7863H11.5595V22.7384H14.5121V25.3109ZM28.7574 25.2891C28.138 25.9086 27.1337 25.9086 26.514 25.2891C25.894 24.6697 25.894 23.6646 26.514 23.0452C27.1337 22.4257 28.138 22.4257 28.7574 23.0445C29.3769 23.6646 29.3769 24.6698 28.7574 25.2891ZM32.3 28.8323C31.6812 29.4512 30.6766 29.4512 30.0566 28.8317C29.4366 28.2123 29.4366 27.2078 30.0566 26.5884C30.6766 25.9689 31.6812 25.9677 32.3 26.5871C32.9201 27.2078 32.9201 28.2123 32.3 28.8323ZM32.3 21.746C31.6812 22.3655 30.6766 22.3655 30.0566 21.746C29.4377 21.1266 29.4366 20.1215 30.0566 19.502C30.6766 18.8826 31.6812 18.8826 32.3 19.502C32.9201 20.1214 32.9201 21.1266 32.3 21.746ZM35.8432 25.2891C35.2244 25.9086 34.2193 25.9086 33.5991 25.2891C32.9791 24.6697 32.9791 23.6646 33.5991 23.0452C34.2192 22.4257 35.2243 22.4257 35.8432 23.0452C36.4627 23.6646 36.4627 24.6698 35.8432 25.2891Z" fill="#FC990D"/>
<path d="M21.7602 5.53289C21.7602 5.3407 21.7984 5.16414 21.8665 5.00148C21.9695 4.75805 22.1437 4.54836 22.3616 4.4007C22.5803 4.25305 22.8373 4.16867 23.1235 4.16867C23.3142 4.16867 23.4914 4.20727 23.6541 4.27594C23.8973 4.37836 24.1076 4.55195 24.2549 4.7707C24.402 4.98945 24.487 5.24617 24.487 5.53289C24.487 5.99328 24.5813 6.43859 24.7518 6.84172C25.0082 7.44672 25.4334 7.95836 25.9696 8.32047C26.5047 8.68328 27.1576 8.89656 27.8505 8.89594C28.3124 8.89594 28.7577 8.80133 29.1602 8.63078C29.764 8.37469 30.2762 7.94984 30.6384 7.41359C31.0012 6.87789 31.2139 6.22531 31.2139 5.53289V0H29.2133V5.53289C29.2133 5.72336 29.1759 5.90047 29.1072 6.06258C29.0041 6.30664 28.8294 6.51633 28.6124 6.66336C28.3931 6.81031 28.1364 6.89531 27.8505 6.89531C27.6601 6.89531 27.4829 6.85734 27.3205 6.78867C27.0767 6.68625 26.867 6.51148 26.7197 6.29391C26.5723 6.07516 26.4877 5.81734 26.4864 5.53281C26.4877 5.07 26.3933 4.62531 26.2225 4.22281C25.9661 3.61781 25.5413 3.10625 25.0049 2.74406C24.4687 2.3807 23.8167 2.16797 23.1234 2.16859C22.6618 2.16797 22.2168 2.26258 21.8137 2.43375C21.209 2.68867 20.6971 3.11469 20.3346 3.65094C19.9722 4.18664 19.7598 4.83922 19.7598 5.53281V13.7134H21.76V5.53289H21.7602Z" fill="#FC990D"/>
</svg>
