<svg width="41" height="40" viewBox="0 0 41 40" fill="none" xmlns="http://www.w3.org/2000/svg">
<path d="M20.7497 36.6673C29.9543 36.6673 37.4163 29.2053 37.4163 20.0007C37.4163 10.7959 29.9543 3.33398 20.7497 3.33398C11.5449 3.33398 4.08301 10.7959 4.08301 20.0007C4.08301 22.6668 4.70904 25.1866 5.82211 27.4215C6.11791 28.0153 6.21636 28.6941 6.04487 29.335L5.05219 33.0452C4.62126 34.6557 6.09469 36.129 7.70526 35.6982L11.4153 34.7055C12.0562 34.534 12.735 34.6325 13.3289 34.9281C15.5636 36.0413 18.0835 36.6673 20.7497 36.6673Z" fill="#2BD69B"/>
<path d="M13.792 21.416C13.0326 21.416 12.417 22.0317 12.417 22.791C12.417 23.5503 13.0326 24.166 13.792 24.166H23.8753C24.6347 24.166 25.2503 23.5503 25.2503 22.791C25.2503 22.0317 24.6347 21.416 23.8753 21.416H13.792Z" fill="#262A35"/>
<path d="M13.792 15C13.0326 15 12.417 15.6156 12.417 16.375C12.417 17.1343 13.0326 17.75 13.792 17.75H28.4587C29.218 17.75 29.8337 17.1343 29.8337 16.375C29.8337 15.6156 29.218 15 28.4587 15H13.792Z" fill="#262A35"/>
</svg>
